<?xml version="1.0" encoding="UTF-8" standalone="no"?>
<!-- Created with Inkscape (http://www.inkscape.org/) -->

<svg
   width="512"
   height="512"
   viewBox="0 0 512 512"
   version="1.1"
   id="svg1"
   xml:space="preserve"
   inkscape:export-filename="nostrlivery_logo.png"
   inkscape:export-xdpi="96"
   inkscape:export-ydpi="96"
   inkscape:version="1.3.2 (091e20ef0f, 2023-11-25)"
   sodipodi:docname="nostrlivery_logo.svg"
   xmlns:inkscape="http://www.inkscape.org/namespaces/inkscape"
   xmlns:sodipodi="http://sodipodi.sourceforge.net/DTD/sodipodi-0.dtd"
   xmlns="http://www.w3.org/2000/svg"
   xmlns:svg="http://www.w3.org/2000/svg"><sodipodi:namedview
     id="namedview1"
     pagecolor="#ffffff"
     bordercolor="#000000"
     borderopacity="0.25"
     inkscape:showpageshadow="2"
     inkscape:pageopacity="0.0"
     inkscape:pagecheckerboard="0"
     inkscape:deskcolor="#d1d1d1"
     inkscape:document-units="px"
     inkscape:zoom="0.90509668"
     inkscape:cx="46.95631"
     inkscape:cy="275.10873"
     inkscape:window-width="1920"
     inkscape:window-height="992"
     inkscape:window-x="0"
     inkscape:window-y="0"
     inkscape:window-maximized="1"
     inkscape:current-layer="layer1" /><defs
     id="defs1"><inkscape:perspective
       sodipodi:type="inkscape:persp3d"
       inkscape:vp_x="61.628212 : 236.36683 : 1"
       inkscape:vp_y="-704.63425 : 709.57078 : 0"
       inkscape:vp_z="430.49269 : 447.60418 : 1"
       inkscape:persp3d-origin="453.36182 : 261.56408 : 1"
       id="perspective4" /><linearGradient
       id="swatch4"
       inkscape:swatch="solid"><stop
         style="stop-color:#23103b;stop-opacity:1;"
         offset="0"
         id="stop4" /></linearGradient></defs><g
     inkscape:label="Camada 1"
     inkscape:groupmode="layer"
     id="layer1"><g
       id="g29"
       transform="matrix(1.1801079,0,0,1.1801079,-54.130697,-59.64116)"><path
         id="path2"
         style="opacity:1;fill:#2f1650;fill-opacity:1;stroke:none;stroke-width:8;stroke-linecap:round;stroke-linejoin:round;stroke-dasharray:none;stroke-opacity:1"
         d="m 350.5957,98.054688 c -1.44809,0.08529 -3.01223,0.2962 -4.70508,0.660156 -15.97544,4.563406 -10.80245,38.461676 -2.78906,49.095706 8.01339,10.63401 32.71219,18.79212 32.33203,40.4707 -0.38016,21.67859 -6.60181,35.17525 -26.72656,34.15039 -20.12475,-1.02486 -50.49919,-11.6272 -78.9043,-9.62695 -46.16913,3.25116 -65.68635,39.60921 -79.72265,47.02148 -14.03631,7.41226 -35.10056,-29.34831 -48.2832,-20.03515 -13.18266,9.31315 -42.56233,58.94579 -15.13868,51.59765 46.49689,-26.84499 43.83818,-3.66906 64.82227,4.21875 5.54852,2.08566 12.39753,3.68231 20.31836,4.91406 -6.965,6.96781 -13.97786,12.91235 -18.50586,13.95704 -11.93625,2.75388 -18.9214,-0.17062 -25.74219,7.16601 -6.82078,7.33663 3.35293,9.75431 -11.37695,31.04688 -14.72989,21.29255 -36.09896,50.21289 -44.36133,50.21289 -8.26237,0 -14.25775,-5.49411 -17.7793,0.45508 -3.52154,5.94918 -3.54882,7.66406 -3.54882,7.66406 0,0 -4.75867,0.78623 -8.09766,4.31836 -3.33899,3.53212 -3.09961,7.29101 -3.09961,7.29101 0,0 -3.49435,0.64484 -4.64258,2.52149 -1.14823,1.87663 4.7207,2.39843 4.7207,2.39843 0,0 10.46943,-4.41854 16.5,-6.11328 6.03058,-1.69474 8.03312,-1.21954 10.38086,-1.45898 2.34774,-0.23944 2.32123,-2.61365 6.3125,-3.35156 3.99128,-0.73791 3.52632,2.81813 11.30664,0.36914 7.78032,-2.44901 36.73012,-55.09481 46.73243,-64.01172 10.0023,-8.91692 27.05807,-29.04506 46.34765,-32.68164 13.47727,-2.54082 49.85611,-8.06261 72.89258,-16.65235 2.12249,-0.0372 4.2819,-0.0813 6.45508,-0.1289 7.79708,40.81651 -0.13595,69.53663 8.5918,75.07812 9.29282,5.90028 14.29641,-2.69325 47.05468,-8.71875 32.75828,-6.0255 46.4299,-9.84359 51.6211,-4.58789 5.19119,5.2557 1.62908,7.94201 6.92383,9.86914 5.29473,1.92712 11.31508,-1.16289 9.89453,-3.74804 -1.42056,-2.58516 -3.22748,-0.36108 -4.89453,-1.33204 -1.66705,-0.97095 -2.64844,-3.14648 -2.64844,-3.14648 0,0 0.9113,1.48685 3.96289,2.30078 3.05159,0.81392 4.87946,0.004 6.73633,0.7207 1.85685,0.71683 5.01944,2.05665 8.67382,2.05664 3.65439,0 7.48243,-2.9082 7.48243,-2.9082 0,0 3.52217,-0.0185 4.92187,0.58008 1.3997,0.59861 -0.13119,-4.41135 -2.80273,-5.21289 -2.67154,-0.80154 -6.71253,-1.34823 -10.87696,-2.64063 -4.16443,-1.29239 -8.43067,-4.68283 -10.84765,-5.66796 -2.41698,-0.98513 -6.48748,-0.46906 -8.36914,-2.2754 -1.88167,-1.80633 -1.75948,-4.92514 -4.57227,-6.39648 -2.81278,-1.47133 -2.8715,-2.3389 -7.39453,-1.02344 -4.52302,1.31546 -67.04617,18.006 -77.57227,14.38672 -10.5261,-3.61928 -2.87109,-26.50586 -2.87109,-26.50586 0,0 10.92999,-17.04745 15.46094,-32.32226 25.48931,-1.96339 33.59183,-6.47634 43.49219,-20.33008 13.18058,-18.44381 -1.70118,-28.4082 -1.70118,-28.4082 0,0 18.49157,-40.15875 15.53125,-65.24219 -4.58723,-38.86876 -36.71638,-40.29957 -38.36328,-52.54492 -1.60614,-11.94219 1.90085,-12.02755 6.39649,-12.10547 4.49562,-0.0779 8.86002,-2.10183 12.76953,-5.36719 2.19006,-1.82923 8.79229,0.95097 9.65812,-2.65234 -0.41843,-0.97331 -1.05046,-1.94662 0.58992,-2.91993 1.16192,-5.30847 -10.97239,-3.39895 -14.69335,-6.60546 -3.25584,-2.8057 -7.71491,-8.395873 -17.85157,-7.798832 z"
         sodipodi:nodetypes="scsssssscscssssscscscssssssccsssssscscscssssssssccscssssccss" /><path
         id="rect25"
         style="opacity:1;fill:#570d65;fill-opacity:1;stroke:#000000;stroke-width:2.00168;stroke-linecap:round;stroke-linejoin:round;stroke-dasharray:none;stroke-opacity:1"
         d="m 301.65263,167.5519 c -0.18279,-0.0372 -0.37095,-0.0581 -0.56505,-0.0581 l -115.17489,0.001 c -1.5528,0 -2.80337,1.24992 -2.80337,2.80271 l 2.3e-4,82.44976 c 0,1.55279 1.25018,2.80185 2.80297,2.80185 l 115.17475,4.5e-4 c 1.55279,0 2.80337,-1.24993 2.80337,-2.80272 l -0.001,-29.65055 a 11.725039,10.647065 23.868476 0 0 11.97757,-9.24295 11.725039,10.647065 23.868476 0 0 -10.74494,-12.23136 11.725039,10.647065 23.868476 0 0 -1.23135,-0.0784 l -4.7e-4,-31.24648 c 0,-1.35869 -0.95826,-2.48522 -2.23778,-2.74572 z"
         transform="matrix(0.99149576,-0.13013901,0.07255566,0.99736436,0,0)" /><rect
         style="opacity:1;fill:#010000;fill-opacity:1;stroke:none;stroke-width:7.57807;stroke-linecap:round;stroke-linejoin:round;stroke-dasharray:none;stroke-opacity:1"
         id="rect26"
         width="124.2812"
         height="4.2165799"
         x="195.0134"
         y="184.55679"
         ry="2.10829"
         transform="matrix(0.99192259,-0.1268447,0,1,0,0)" /><path
         style="opacity:1;fill:#010000;fill-opacity:1;stroke:none;stroke-width:8;stroke-linecap:round;stroke-linejoin:round;stroke-dasharray:none;stroke-opacity:1"
         d="m 303.44678,217.43727 c 0,0 20.71894,9.77353 30.73985,34.67579 -2.04189,-19.59888 -15.55212,-34.50418 -23.84088,-37.34236 -4.6033,0.009 -6.89897,2.66657 -6.89897,2.66657 z"
         id="path26"
         sodipodi:nodetypes="cccc" /><path
         style="opacity:1;fill:#010000;fill-opacity:1;stroke:none;stroke-width:8;stroke-linecap:round;stroke-linejoin:round;stroke-dasharray:none;stroke-opacity:1"
         d="m 212.69143,230.09256 c 19.466,19.56272 44.68712,29.85294 62.92164,33.17942 -26.73121,-12.91415 -38.491,-14.01149 -55.87749,-35.57593 -5.10204,-2.21996 -7.04415,2.39651 -7.04415,2.39651 z"
         id="path27"
         sodipodi:nodetypes="cccc" /></g></g></svg>
